<?xml version="1.0" encoding="utf-8"?>
<!-- Generator: Adobe Illustrator 25.2.3, SVG Export Plug-In . SVG Version: 6.00 Build 0)  -->
<svg version="1.1" id="Layer_1" xmlns="http://www.w3.org/2000/svg" xmlns:xlink="http://www.w3.org/1999/xlink" x="0px" y="0px"
	 viewBox="0 0 50 250" style="enable-background:new 0 0 50 250;" xml:space="preserve">
<style type="text/css">
	.st0{fill:#FFFFFF;}
</style>
<path class="st0" d="M49.42,46.47L36.99,34.05c7.29-8.91,5.97-22.05-2.94-29.34S12-1.26,4.71,7.65S-1.26,29.7,7.65,36.99
	c7.68,6.28,18.72,6.28,26.39,0l12.43,12.43c0.83,0.8,2.14,0.78,2.94-0.05C50.19,48.56,50.19,47.28,49.42,46.47z M20.88,37.54
	c-9.2,0-16.65-7.46-16.65-16.65S11.69,4.23,20.88,4.23s16.65,7.46,16.65,16.65C37.53,30.08,30.08,37.53,20.88,37.54z"/>
<path class="st0" d="M41.67,164.5h-3.62c2.38-2.1,3.71-5.16,3.62-8.33c0-1.15-0.93-2.08-2.08-2.08s-2.08,0.93-2.08,2.08
	c0,5.46-4.94,7.35-8.7,8c1.39-2.46,2.22-5.19,2.45-8c0-3.45-2.8-6.25-6.25-6.25s-6.25,2.8-6.25,6.25c0.22,2.81,1.06,5.54,2.45,8
	c-3.76-0.65-8.7-2.54-8.7-8c0-1.15-0.93-2.08-2.08-2.08s-2.08,0.93-2.08,2.08c-0.09,3.18,1.24,6.23,3.62,8.33H8.33
	c-4.6,0-8.33,3.73-8.33,8.33v2.08c0,2.3,1.87,4.17,4.17,4.17v10.42c0.01,5.75,4.67,10.41,10.42,10.42h20.83
	c5.75-0.01,10.41-4.67,10.42-10.42v-10.42c2.3,0,4.17-1.87,4.17-4.17v-2.08C50,168.23,46.27,164.5,41.67,164.5z M25,154.08
	c1.15,0,2.08,0.93,2.08,2.08c-0.25,2.21-0.96,4.35-2.08,6.28c-1.12-1.93-1.83-4.06-2.08-6.28C22.92,155.01,23.85,154.08,25,154.08z
	 M4.17,172.83c0-2.3,1.87-4.17,4.17-4.17h14.58v6.25H4.17V172.83z M8.33,189.5v-10.42h14.58v16.67h-8.33
	C11.13,195.75,8.33,192.95,8.33,189.5z M41.67,189.5c0,3.45-2.8,6.25-6.25,6.25h-8.33v-16.67h14.58V189.5z M27.08,174.91v-6.25
	h14.58c2.3,0,4.17,1.87,4.17,4.17v2.08H27.08z"/>
<path class="st0" d="M14.58,229.17c0,1.15-0.93,2.08-2.08,2.08h-2.08c-1.15,0-2.08-0.93-2.08-2.08c0-1.15,0.93-2.08,2.08-2.08h2.08
	C13.65,227.08,14.58,228.02,14.58,229.17z M22.92,227.08h-2.08c-1.15,0-2.08,0.93-2.08,2.08c0,1.15,0.93,2.08,2.08,2.08h2.08
	c1.15,0,2.08-0.93,2.08-2.08C25,228.02,24.07,227.08,22.92,227.08z M12.5,235.42h-2.08c-1.15,0-2.08,0.93-2.08,2.08
	s0.93,2.08,2.08,2.08h2.08c1.15,0,2.08-0.93,2.08-2.08S13.65,235.42,12.5,235.42z M22.92,235.42h-2.08c-1.15,0-2.08,0.93-2.08,2.08
	s0.93,2.08,2.08,2.08h2.08c1.15,0,2.08-0.93,2.08-2.08S24.07,235.42,22.92,235.42z M12.5,210.42h-2.08c-1.15,0-2.08,0.93-2.08,2.08
	s0.93,2.08,2.08,2.08h2.08c1.15,0,2.08-0.93,2.08-2.08S13.65,210.42,12.5,210.42z M22.92,210.42h-2.08c-1.15,0-2.08,0.93-2.08,2.08
	s0.93,2.08,2.08,2.08h2.08c1.15,0,2.08-0.93,2.08-2.08S24.07,210.42,22.92,210.42z M12.5,218.75h-2.08c-1.15,0-2.08,0.93-2.08,2.08
	c0,1.15,0.93,2.08,2.08,2.08h2.08c1.15,0,2.08-0.93,2.08-2.08S13.65,218.75,12.5,218.75z M22.92,218.75h-2.08
	c-1.15,0-2.08,0.93-2.08,2.08c0,1.15,0.93,2.08,2.08,2.08h2.08c1.15,0,2.08-0.93,2.08-2.08S24.07,218.75,22.92,218.75z M50,220.83
	v18.75c-0.01,5.75-4.67,10.41-10.42,10.42H10.42C4.67,249.99,0.01,245.33,0,239.58v-29.17c0.01-5.75,4.67-10.41,10.42-10.42h12.5
	c5.75,0.01,10.41,4.67,10.42,10.42h6.25C45.33,210.42,49.99,215.08,50,220.83z M10.42,245.83h18.75v-35.42
	c0-3.45-2.8-6.25-6.25-6.25h-12.5c-3.45,0-6.25,2.8-6.25,6.25v29.17C4.17,243.04,6.96,245.83,10.42,245.83z M45.83,220.83
	c0-3.45-2.8-6.25-6.25-6.25h-6.25v31.25h6.25c3.45,0,6.25-2.8,6.25-6.25V220.83z M39.58,227.08c-1.15,0-2.08,0.93-2.08,2.08
	c0,1.15,0.93,2.08,2.08,2.08s2.08-0.93,2.08-2.08C41.67,228.02,40.73,227.08,39.58,227.08z M39.58,235.42
	c-1.15,0-2.08,0.93-2.08,2.08s0.93,2.08,2.08,2.08s2.08-0.93,2.08-2.08S40.73,235.42,39.58,235.42z M39.58,218.75
	c-1.15,0-2.08,0.93-2.08,2.08c0,1.15,0.93,2.08,2.08,2.08s2.08-0.93,2.08-2.08C41.67,219.68,40.73,218.75,39.58,218.75z"/>
<g>
	<path class="st0" d="M39.38,53.59H10.62C4.82,53.54,0.06,58.2,0,64.01v6.25c0,1.15,0.93,2.08,2.08,2.08s2.08-0.93,2.08-2.08v-6.25
		c0.06-3.51,2.95-6.3,6.46-6.25h28.75c3.51-0.05,6.4,2.74,6.46,6.25v29.17c-0.06,3.51-2.95,6.3-6.46,6.25H10.62
		c-3.51,0.05-6.4-2.74-6.46-6.25v-6.25c0-1.15-0.93-2.08-2.08-2.08S0,85.77,0,86.92v6.25c0.06,5.81,4.82,10.47,10.62,10.42h28.75
		c5.81,0.05,10.56-4.61,10.62-10.42V64.01C49.94,58.2,45.18,53.54,39.38,53.59z"/>
	<path class="st0" d="M6.25,78.59c0,1.15,0.93,2.08,2.08,2.08l0,0l27.48-0.06l-9.01,9.01c-0.83,0.8-0.85,2.12-0.05,2.95
		c0.8,0.83,2.12,0.85,2.95,0.05c0.02-0.02,0.03-0.03,0.05-0.05l9.55-9.55c2.44-2.44,2.44-6.4,0-8.84l-9.55-9.55
		c-0.83-0.8-2.15-0.78-2.95,0.05c-0.78,0.81-0.78,2.09,0,2.89l8.88,8.88L8.33,76.51C7.18,76.51,6.25,77.44,6.25,78.59z"/>
</g>
<path class="st0" d="M49.99,147.65c-0.1,1.1-1.12,1.9-2.22,1.9H2.23c-1.11,0-2.13-0.79-2.22-1.9c-0.11-1.23,0.86-2.27,2.08-2.27
	h45.83C49.13,145.38,50.1,146.41,49.99,147.65z M0.61,122.09c-0.92-1.7-0.79-3.77,0.32-5.35c0.89-1.31,2.08-2.38,3.47-3.12
	l15.63-8.13c3.12-1.62,6.83-1.62,9.94,0l15.62,8.14c1.39,0.75,2.58,1.82,3.47,3.12c1.11,1.58,1.23,3.65,0.32,5.35
	c-0.99,1.86-2.93,3.02-5.03,3.01h-0.61v11.9c0,0.02,0.02,0.03,0.03,0.03h1.9c1.11,0,2.13,0.79,2.22,1.9
	c0.11,1.23-0.86,2.27-2.08,2.27H4.32c-1.11,0-2.13-0.79-2.22-1.9c-0.11-1.23,0.86-2.27,2.08-2.27h2.05c0.02,0,0.03-0.02,0.03-0.03
	v-11.9H5.64C3.53,125.12,1.59,123.96,0.61,122.09L0.61,122.09z M10.45,137.04h6.18c0.02,0,0.03-0.02,0.03-0.03v-11.9h-6.25l0,11.9
	C10.42,137.03,10.43,137.04,10.45,137.04z M20.83,125.11v11.9c0,0.02,0.02,0.03,0.03,0.03h8.26c0.02,0,0.03-0.02,0.03-0.03v-11.9
	H20.83z M39.58,125.11h-6.25v11.9c0,0.02,0.02,0.03,0.03,0.03h6.18c0.02,0,0.03-0.02,0.03-0.03V125.11z M4.3,120.16
	c0.27,0.49,0.78,0.79,1.34,0.78h38.71c0.56,0.01,1.08-0.29,1.34-0.78c0.19-0.33,0.17-0.74-0.05-1.04c-0.5-0.75-1.18-1.37-1.98-1.8
	l-15.62-8.14c-1.91-0.99-4.18-0.99-6.1,0l-15.62,8.14c-0.79,0.43-1.47,1.05-1.98,1.8C4.13,119.42,4.11,119.83,4.3,120.16L4.3,120.16
	z"/>
</svg>
